<svg width="209" height="191" viewBox="0 0 209 191" fill="none" xmlns="http://www.w3.org/2000/svg">
<path d="M191.4 0.719971H17.6C13.126 0.719971 9.5 4.34697 9.5 8.81997V182.176C9.5 186.65 13.127 190.276 17.6 190.276H191.4C195.874 190.276 199.5 186.649 199.5 182.176V8.82197C199.5 4.34797 195.873 0.721971 191.4 0.721971V0.719971Z" fill="#202024"/>
<path fill-rule="evenodd" clip-rule="evenodd" d="M138.236 53.5941C138.236 56.4501 139.423 57.8741 141.796 57.8741C143.224 57.8741 144.796 57.4221 146.483 56.5191L148.633 62.7151C146.037 64.1021 143.589 64.8011 141.293 64.8011C137.945 64.8011 135.356 63.8791 133.526 62.0411C131.702 60.2031 130.79 57.5691 130.79 54.1531V41.9331H124.745V35.8531H130.79V25.6561L138.245 23.4041V35.8541H149.143V41.9341H138.245L138.238 53.5941H138.236ZM89.6399 51.5071H68.1799C68.5559 53.4971 69.3919 55.0821 70.6919 56.2651C71.9919 57.4481 73.5039 58.0401 75.2389 58.0401C78.4389 58.0401 80.7739 56.8001 82.2409 54.3201L88.9049 55.7261C87.6999 58.5821 85.9149 60.7391 83.5419 62.2081C81.1699 63.6711 78.4019 64.4021 75.2389 64.4021C71.1709 64.4021 67.7459 63.0151 64.9589 60.2361C62.1719 57.4571 60.7819 53.8881 60.7819 49.5301C60.7819 45.1721 62.1849 41.5981 64.9919 38.8001C67.7989 36.0021 71.2539 34.6001 75.3549 34.6001C79.1949 34.6001 82.4969 35.9421 85.2549 38.6261C88.0129 41.3101 89.4829 44.7581 89.6289 48.9631V51.5071H89.6399ZM71.0319 42.4371C69.6919 43.3401 68.8189 44.6121 68.4049 46.2671H82.0129C81.5599 44.5371 80.7309 43.2451 79.5259 42.3801C78.3209 41.5151 76.9309 41.0821 75.3489 41.0821C73.8059 41.0821 72.3709 41.5341 71.0319 42.4371V42.4371ZM53.8919 38.7471C55.9639 40.9411 56.9969 43.7911 56.9969 47.2831V64.4071H49.5399V48.8551C49.5399 46.8651 49.0229 45.2671 47.9839 44.0551C46.9509 42.8531 45.5669 42.2551 43.8339 42.2551C39.1659 42.2551 36.8319 45.4851 36.8319 51.9431V64.4001H29.3779V36.2901H36.8319V38.8281C39.0889 36.5761 42.0479 35.4501 45.6959 35.4501C49.0879 35.4441 51.8179 36.5441 53.8899 38.7451L53.8919 38.7471ZM113.025 64.4071H121.888L111.838 50.7171L121.888 36.2971H113.025L106.303 45.9851L99.6399 36.2971H90.7759L100.826 50.7171L90.7759 64.4071H99.6399L106.303 55.2221L113.025 64.4071ZM47.4999 73.7261V113.934H54.9549V73.7261H47.4999ZM88.3299 101.034H66.8729C67.2489 103.024 68.0849 104.609 69.3849 105.792C70.6849 106.975 72.1969 107.567 73.9319 107.567C77.1319 107.567 79.4669 106.327 80.9339 103.847L87.5979 105.252C86.3929 108.108 84.6079 110.265 82.2349 111.734C79.8629 113.197 77.0949 113.929 73.9319 113.929C69.8639 113.929 66.4389 112.542 63.6519 109.762C60.8649 106.982 59.4749 103.414 59.4749 99.0571C59.4749 94.7001 60.8779 91.1251 63.6849 88.3271C66.4919 85.5291 69.9469 84.1291 74.0469 84.1291C77.8869 84.1291 81.1889 85.4711 83.9469 88.1561C86.7049 90.8411 88.1749 94.288 88.3209 98.493V101.037L88.3299 101.034ZM69.7229 91.9641C68.3829 92.8671 67.5099 94.1391 67.0959 95.7941H80.7039C80.2509 94.0641 79.4219 92.7741 78.2169 91.9071C77.0119 91.0401 75.6219 90.6091 74.0399 90.6091C72.5029 90.6151 71.0619 91.0671 69.7229 91.9641V91.9641ZM88.6179 85.7681L101.55 113.934H107.085L120.017 85.7681H112.052L104.317 103.12L96.5819 85.7681H88.6169H88.6179ZM149.158 101.034H127.7C128.076 103.024 128.912 104.609 130.213 105.792C131.514 106.975 133.025 107.567 134.759 107.567C137.959 107.567 140.294 106.327 141.761 103.847L148.425 105.252C147.22 108.108 145.435 110.265 143.062 111.734C140.69 113.197 137.922 113.929 134.759 113.929C130.691 113.929 127.266 112.542 124.479 109.762C121.692 106.982 120.302 103.414 120.302 99.0571C120.302 94.7001 121.705 91.1251 124.512 88.3271C127.319 85.5291 130.774 84.1291 134.874 84.1291C138.714 84.1291 142.016 85.4711 144.774 88.1561C147.532 90.8411 149.001 94.288 149.148 98.493V101.037L149.158 101.034ZM130.551 91.9641C129.211 92.8671 128.338 94.1391 127.923 95.7941H141.531C141.079 94.0641 140.251 92.7741 139.044 91.9071C137.837 91.0401 136.449 90.6091 134.868 90.6091C133.324 90.6151 131.883 91.0671 130.551 91.9641ZM153.679 73.7271V113.935H161.134V73.7261H153.679V73.7271ZM62.7149 160.625H56.4979L50.4019 144.061L44.2479 160.625H38.0379L27.5859 132.459H35.5509L41.4239 149.302L47.4689 132.459H53.2849L59.3299 149.359L65.2029 132.459H73.1679L62.7159 160.625H62.7149ZM81.4119 147.725H102.87V145.181C102.723 140.976 101.263 137.528 98.4949 134.844C95.7269 132.16 92.4249 130.817 88.5949 130.817C84.4949 130.817 81.0389 132.217 78.2329 135.017C75.4269 137.817 74.0229 141.39 74.0229 145.747C74.0229 150.104 75.4229 153.672 78.1999 156.452C80.9769 159.232 84.4099 160.619 88.4799 160.619C91.6429 160.619 94.4099 159.887 96.7829 158.424C99.1549 156.954 100.941 154.798 102.146 151.942L95.4829 150.537C94.0159 153.017 91.6829 154.257 88.4809 154.257C86.7469 154.257 85.2349 153.665 83.9339 152.482C82.6329 151.299 81.7979 149.715 81.4209 147.724L81.4119 147.725ZM81.6349 142.483C82.0489 140.83 82.9229 139.557 84.2619 138.653C85.5949 137.756 87.0359 137.305 88.5789 137.298C90.1589 137.298 91.5509 137.731 92.7559 138.596C93.9609 139.461 94.7899 140.752 95.2429 142.482H81.6359L81.6349 142.483ZM133.988 147.725H112.531C112.907 149.715 113.741 151.3 115.043 152.483C116.345 153.666 117.855 154.258 119.59 154.258C122.79 154.258 125.125 153.018 126.59 150.538L133.254 151.943C132.049 154.799 130.264 156.956 127.891 158.425C125.519 159.888 122.751 160.62 119.589 160.62C115.519 160.62 112.096 159.233 109.309 156.453C106.522 153.673 105.132 150.105 105.132 145.748C105.132 141.391 106.535 137.815 109.342 135.018C112.149 132.221 115.604 130.818 119.704 130.818C123.544 130.818 126.846 132.161 129.604 134.845C132.362 137.529 133.832 140.977 133.978 145.182V147.726L133.988 147.725ZM115.381 138.655C114.041 139.558 113.168 140.831 112.754 142.485H126.362C125.909 140.755 125.08 139.465 123.875 138.599C122.67 137.733 121.279 137.301 119.698 137.301C118.155 137.308 116.714 137.759 115.381 138.656V138.655ZM144.606 160.625V149.977L155.906 160.619H166.07L151.384 146.535L164.994 132.509H155.562L144.607 143.552V120.392H137.152V160.625H144.607H144.606Z" fill="white"/>
<path fill-rule="evenodd" clip-rule="evenodd" d="M21.4 45.77V38.054L0.042 45.983L0 45.967V53.887L0.042 53.871L21.4 61.8V54.084L10.44 49.927L21.4 45.77ZM187.592 162.05V154.334L198.544 150.18L187.592 146.027V138.3L208.942 146.226L208.992 146.206V154.132L208.942 154.112L187.592 162.038V162.05ZM166.249 110.903V117.041H189.977V110.903H166.25H166.249ZM20.187 118.226V112.086H43.915V118.226H20.188H20.187ZM178.423 127.396L165.867 167.604H173.322L185.878 127.396H178.423V127.396Z" fill="#7159C1"/>
</svg>
